<svg version="1.2" baseProfile="tiny" viewBox="0 0 62.75 45.838" xmlns:xlink="http://www.w3.org/1999/xlink" xmlns="http://www.w3.org/2000/svg">
<path style="fill:#ffffff;" d="M61.7498,10.4259C61.1969,10.4259,60.7502,10.8741,60.7502,11.426L60.7502,16.839L55.9667,16.839C55.6279,9.984,51.834,3.651,45.8809,0.1389C45.8571,0.1242,45.8282,0.1178,45.8031,0.1059C45.7749,0.0921,45.7473,0.0811,45.7178,0.0701C45.6061,0.0289,45.4919,0.0,45.3733,0.0L10.6261,0.0L10.6261,0.0C10.5069,0.0,10.3933,0.0,10.281,0.0C10.2521,0.0,10.2239,0.0,10.1969,0.0C10.1711,0.0,10.1423,0.0,10.1178,0.0C3.8767,3.8201,0.0,10.6028,0.0,17.8388C0.0,25.0761,3.8767,31.8579,10.1178,35.54C10.1423,35.5552,10.1711,35.5611,10.1962,35.573C10.2239,35.5868,10.2521,35.5978,10.2822,35.6088C10.392,35.65,10.5069,35.678,10.6261,35.678L13.0558,35.678L9.6547,44.478C9.5361,44.786,9.5763,45.1321,9.762,45.4039C9.949,45.6762,10.2571,45.8389,10.5872,45.8389L45.9443,45.8389C46.2819,45.8389,46.5963,45.6689,46.7808,45.386C46.9659,45.1032,46.996,44.7461,46.8598,44.4372L43.0151,35.6789L45.3733,35.6789C45.4919,35.6789,45.6067,35.651,45.7178,35.6102C45.746,35.5992,45.773,35.5882,45.8,35.5749C45.8257,35.562,45.8558,35.5552,45.8809,35.541C51.8328,32.0288,55.6272,25.6968,55.9661,18.8399L60.7489,18.8399L60.7489,24.2538C60.7489,24.8071,61.1963,25.254,61.7491,25.254C62.302,25.254,62.7487,24.8071,62.7487,24.2538L62.7487,11.426C62.75,10.8741,62.3032,10.4259,61.7498,10.4259M12.0461,43.8381L15.1861,35.7128L40.8471,35.7128L44.4132,43.8381L12.0461,43.8381M11.6257,33.6781L11.6257,1.9999L44.373,1.9999L44.373,33.6781L11.6257,33.6781L11.6257,33.6781M1.9998,17.8388C1.9998,11.9142,4.8851,6.3321,9.6259,2.864L9.6259,32.8141C4.8851,29.3459,1.9998,23.7638,1.9998,17.8388M46.3729,32.815L46.3729,2.864C51.1149,6.3321,54.0001,11.9142,54.0001,17.8388C54.0001,23.7638,51.1143,29.3469,46.3729,32.815Z"/>
</svg>